<svg width="398" height="402" viewBox="0 0 398 402" fill="none" xmlns="http://www.w3.org/2000/svg">
<path d="M0.499901 402V401.5C0.499901 379.6 0.499901 357.7 0.499901 335.8C0.499901 322.8 0.499901 309.7 0.499901 296.7C0.499901 260 6.4999 234.1 22.5999 201.1C36.1999 173.3 50.1999 144.5 41.1999 111.7C36.7999 95.7 29.5999 80.7 22.5999 66.2C12.9999 46 2.8999 25.1 0.499901 1.30003L0.399902 0.800028H0.999901C12.8999 0.800028 24.7999 0.60003 36.3999 0.40003C93.9999 -0.49997 148.5 -1.29997 203.1 17.2L205.2 17.9C233.2 27.4 262.2 37.3 292.3 31.6C308.4 28.6 323.5 22.7 338.2 17C356.7 9.80003 375.9 2.40003 396.9 0.700029H397.4V1.20003C397.4 22.2 397.4 43.2 397.4 64.2V111.5C397.4 143.9 391.1 167.4 374.3 198.1C357.4 228.9 345.4 255.3 356.9 290.5C361.5 304.8 367.9 318.5 374.1 331.8C384.3 353.6 394.8 376.1 397.4 401.4L397.5 402H397C381.4 402 365.8 402 350.2 402C328.4 402 306.7 402 284.9 402C255.2 402 233.9 396.6 206.5 382.1C176.5 366.3 153 358.6 121.5 366.3C105.1 370.3 89.0999 376.3 73.6999 382C50.5999 390.7 26.6999 399.6 1.0999 401.9L0.499901 402ZM145.3 362.3C166.2 362.3 184.8 369.6 206.9 381.2C234.1 395.6 255.3 400.9 284.8 401C306.6 401 328.3 401 350.1 401C365.5 401 380.9 401 396.3 401C393.6 376.1 383.2 353.8 373.2 332.3C367 319 360.6 305.3 355.9 290.9C344.4 255.3 356.4 228.7 373.4 197.7C390.1 167.1 396.3 143.8 396.3 111.6V64.3C396.3 43.5 396.3 22.6 396.3 1.80003C375.6 3.50003 356.7 10.9 338.4 18C323.7 23.7 308.5 29.6 292.3 32.7C262 38.4 232.9 28.5 204.7 18.9L202.6 18.2C148.4 -0.299974 93.9999 0.50003 36.4999 1.40003C25.0999 1.60003 13.2999 1.70003 1.5999 1.80003C3.9999 25.2 13.9999 45.9 23.5999 65.9C30.5999 80.4 37.7999 95.4 42.1999 111.5C51.2999 144.7 37.1999 173.6 23.4999 201.6C7.4999 234.5 1.4999 260.3 1.4999 296.8C1.4999 309.8 1.4999 322.9 1.4999 335.9C1.4999 357.6 1.4999 379.3 1.4999 401C26.7999 398.6 50.3999 389.8 73.2999 381.2C88.7999 375.4 104.7 369.4 121.2 365.4C129.8 363.2 137.7 362.3 145.3 362.3Z" fill="#3F5EF4"/>
<path d="M273.4 57.2C250.7 57.2 228.6 50.6 207.1 44.2L206.3 44C149.3 27 88.2997 27.6 29.2997 28.2C21.3997 28.3 13.4997 28.4 5.69971 28.4V27.4C13.4997 27.4 21.3997 27.3 29.2997 27.2C88.3997 26.6 149.4 26 206.6 43.1L207.4 43.3C234.5 51.4 262.5 59.7 291.4 54.7C307.5 51.9 323 46.8 338 41.8C356.8 35.6 376.2 29.1 396.9 27.3L397 28.3C376.5 30.1 357.1 36.5 338.3 42.7C323.2 47.7 307.7 52.8 291.5 55.6C285.5 56.8 279.4 57.2 273.4 57.2Z" fill="#3F5EF4"/>
<path d="M271 75.9C251.5 75.9 232.6 72.6 214.7 68.9C188 63.3 162.4 62.2 135.3 61L129.9 60.8C115.6 60.2 101.1 59.3 86.9998 58.4C63.9998 56.9 40.2998 55.4 16.7998 55.2V54.2C40.2998 54.5 63.9998 56 86.9998 57.4C101 58.3 115.5 59.2 129.8 59.8L135.2 60C162.4 61.2 188 62.3 214.8 67.9C239.1 73 265.4 77.2 292.2 73.5C307.2 71.4 322 68 336.3 64.6C355.9 60.1 376.1 55.3 396.8 54.1L396.9 55.1C376.2 56.3 356 61 336.5 65.6C322.1 68.9 307.3 72.4 292.3 74.5C285.2 75.4 278.1 75.9 271 75.9Z" fill="#3F5EF4"/>
<path d="M230.8 93.3C228.7 93.3 226.6 93.3 224.5 93.3C189.3 92.8 153.9 90 119.5 87.4C90.0997 85.1 59.6997 82.8 29.6997 81.8V80.8C59.7997 81.7 90.1997 84.1 119.6 86.4C153.9 89.1 189.4 91.8 224.5 92.3C256.2 92.8 288 89.6 318.6 86.5C344.1 83.9 370.6 81.3 396.9 80.8V81.8C370.6 82.3 344.2 85 318.7 87.5C290.1 90.4 260.5 93.3 230.8 93.3Z" fill="#3F5EF4"/>
<path d="M183.3 124.8C157.4 124.8 130.6 120.5 104.4 116.3C82.1001 112.7 61.1001 109.3 40.6001 108.4V107.4C61.2001 108.3 82.2001 111.7 104.5 115.3C147.8 122.2 192.5 129.4 232.5 117.1C250.7 111.5 267.3 111.2 286.4 110.9H288.2C303.6 110.6 319.2 109.9 334.3 109.2C354.8 108.3 376 107.3 396.9 107.4V108.4C376 108.2 354.9 109.2 334.4 110.2C319.3 110.9 303.6 111.6 288.2 111.9H286.4C267.4 112.2 250.9 112.5 232.8 118.1C216.9 123 200.3 124.8 183.3 124.8Z" fill="#3F5EF4"/>
<path d="M203.6 152.9C197 152.9 190.2 152.3 183.1 151.6L182.4 151.5C163 149.7 143.5 146.8 124.6 144C98.7001 140.2 71.8001 136.2 45.1001 135.1V134.1C71.9001 135.2 98.7001 139.2 124.7 143C143.6 145.8 163.1 148.7 182.4 150.5L183.1 150.6C203.4 152.5 219.5 153.9 235.7 143.1C249.8 133.7 263.7 133.9 279.9 134.1C282.3 134.1 284.8 134.2 287.3 134.2H396.8V135.2H287.3C284.8 135.2 282.3 135.2 279.9 135.1C263.9 134.9 250.1 134.7 236.3 143.9C225.8 150.9 215.1 152.9 203.6 152.9Z" fill="#3F5EF4"/>
<path d="M192.2 173.9C186.2 173.9 180.1 173.6 173.8 173.1C155 171.7 136 169.9 117.6 168.1C92.4 165.7 66.3 163.1 40.5 161.8L40.6 160.8C66.4 162.1 92.5 164.7 117.7 167.1C136.1 168.9 155.1 170.7 173.9 172.1C194.4 173.6 212 173.3 231.7 167.2C250.1 161.4 267.2 160.9 287.5 160.8C302.3 160.7 317.4 160.6 332 160.4C351.7 160.2 372.1 160 392.1 160V161C372.1 161 351.7 161.2 332 161.4C317.4 161.5 302.3 161.7 287.5 161.8C267.2 161.9 250.3 162.4 231.9 168.1C218.3 172.4 205.6 173.9 192.2 173.9Z" fill="#3F5EF4"/>
<path d="M92.7001 188.9C71.6001 188.9 50.6001 188.8 29.6001 188.5V187.5C103.7 188.5 178.9 187.4 251.6 186.5C293.9 185.9 337.6 185.3 380.7 185.1V186.1C337.7 186.3 293.9 186.9 251.6 187.5C199.5 188.2 146.1 188.9 92.7001 188.9Z" fill="#3F5EF4"/>
<path d="M16.6001 215.2V214.2C37.6001 213.3 58.4001 211 78.5001 208.7C122.9 203.8 164.9 199.2 209.6 207.5C248.3 214.7 285.3 213 324.4 211.3C338.4 210.7 352.8 210 367.2 209.8V210.8C352.8 211 338.4 211.7 324.4 212.3C285.2 214.1 248.2 215.8 209.4 208.5C164.8 200.2 122.9 204.8 78.5001 209.7C58.4001 211.9 37.6001 214.2 16.6001 215.2Z" fill="#3F5EF4"/>
<path d="M5.7001 241.8L5.6001 240.8C26.6001 238.9 47.0001 233.5 66.8001 228.3C81.4001 224.4 96.5001 220.5 111.7 217.9C142.7 212.7 171.5 220.6 199.4 228.2C224 234.9 252.9 242 283.9 240.3C294.3 239.7 304.7 238.7 314.8 237.7C328.2 236.4 342 235 355.7 234.7V235.7C342 236 328.2 237.4 314.8 238.7C304.7 239.7 294.2 240.7 283.8 241.3C252.7 243 223.8 235.9 199 229.2C171.2 221.6 142.5 213.7 111.7 218.9C96.5001 221.5 81.4001 225.4 66.8001 229.3C47.2001 234.5 26.8001 239.9 5.7001 241.8Z" fill="#3F5EF4"/>
<path d="M1.1 268.5L1 267.5C21.7 265.8 40.9 259 59.5 252.5C74.5 247.2 90 241.7 106.3 238.9C135.8 233.8 164.5 242.8 192.3 251.5L195.2 252.4C223.2 261.1 250.9 268.8 281.6 267.1C292 266.5 302.4 265.3 312.5 264C325 262.5 338 260.9 351 260.6V261.6C338 261.9 325.1 263.4 312.6 265C302.5 266.2 292.1 267.5 281.6 268.1C250.8 269.8 223 262.1 194.9 253.3L192 252.4C164.3 243.8 135.7 234.8 106.4 239.9C90.2 242.7 74.7 248.2 59.8 253.4C41.1 260 21.9 266.9 1.1 268.5Z" fill="#3F5EF4"/>
<path d="M1.1 295.2L1 294.2C22.4 292.6 42.2 285.5 61.3 278.6C75.5 273.5 90.2 268.3 105.5 265.2C137 258.9 167 268.8 196 278.4L196.4 278.5C228.2 289.1 254 295.3 283.9 293.6C294.1 293 304.5 292 314.4 291C327.9 289.7 341.8 288.3 355.6 288V289C341.8 289.3 327.9 290.7 314.5 292C304.5 293 294.2 294 283.9 294.6C253.8 296.3 228 290.1 196 279.5L195.6 279.4C166.7 269.8 136.9 259.9 105.7 266.2C90.4 269.3 75.8 274.5 61.7 279.6C42.5 286.5 22.6 293.6 1.1 295.2Z" fill="#3F5EF4"/>
<path d="M1.1 321.9L1 320.9C23.7 319.1 44.6 311.5 64.9 304.1C78.6 299.1 92.9 294 107.6 290.6C139.8 283.2 168.2 292.4 199.3 304.2C232.7 316.9 258.2 321.6 287.4 320.5C298.3 320.1 309.3 319.4 319.9 318.7C335.3 317.7 351.2 316.7 367 316.5V317.5C351.3 317.7 335.4 318.7 320 319.7C309.4 320.4 298.3 321.1 287.5 321.5C258.1 322.7 232.5 317.9 199 305.2C168.1 293.4 139.9 284.3 107.9 291.6C93.2 295 79 300.1 65.3 305.1C44.9 312.4 23.9 320.1 1.1 321.9Z" fill="#3F5EF4"/>
<path d="M1.1 348.6L1 347.6C25.1 345.5 47.5 337.3 69.2 329.3C82.6 324.4 96.4 319.3 110.6 315.6C145.6 306.6 174.2 317 202.8 329.5C233.2 342.7 257.5 347.9 286.6 347.4C300 347.2 313.5 346.8 326.6 346.3C344.3 345.7 362.6 345.2 380.6 345.1V346.1C362.6 346.2 344.3 346.8 326.6 347.3C313.5 347.7 299.9 348.1 286.5 348.4C257.3 348.9 232.9 343.7 202.3 330.4C173.8 318 145.4 307.7 110.8 316.6C96.6 320.3 82.8 325.3 69.5 330.2C47.8 338.2 25.3 346.5 1.1 348.6Z" fill="#3F5EF4"/>
<path d="M284.5 375.3C255.9 375.3 233.7 369.9 205.3 355.9C179.3 343.1 153.1 332.4 119 340.6C102.9 344.5 87.2 350.3 72.1 355.9C49.5 364.3 26.1 373 1.1 375.3L1 374.3C25.9 372 49.2 363.4 71.8 355C87 349.4 102.6 343.5 118.8 339.6C153.2 331.3 179.5 342.2 205.7 355C234 368.9 256.1 374.3 284.5 374.3C284.7 374.3 284.8 374.3 285 374.3C301.1 374.3 317.5 374.1 333.4 373.9C352.6 373.7 372.5 373.5 392 373.5V374.5C372.5 374.5 352.6 374.7 333.4 374.9C317.5 375.1 301.1 375.2 285 375.3C284.8 375.3 284.7 375.3 284.5 375.3Z" fill="#3F5EF4"/>
<path d="M370.1 401.5C367.3 377.1 358.2 354.6 349.4 332.8C344 319.5 338.5 305.7 334.3 291.6C324.2 256.9 334.7 229.9 349.5 198.1C364.1 166.8 369.9 142.6 370 111.6C370.1 96.5 370.2 81.1 370.4 66.3C370.6 46.2 370.9 25.3 370.8 4.90002H371.8C371.8 25.4 371.6 46.2 371.4 66.3C371.2 81.2 371 96.5 371 111.6C370.9 142.8 365.1 167.1 350.4 198.6C335.7 230.1 325.2 257 335.2 291.4C339.3 305.5 344.9 319.3 350.2 332.6C359 354.5 368.1 377 370.9 401.6L370.1 401.5Z" fill="#3F5EF4"/>
<path d="M343.7 401.5C341.9 378.4 335.3 356.2 328.9 334.8C324.6 320.3 320.2 305.4 317.2 290.1C310.8 257.5 318.7 229.6 328.9 199C346.5 146 346.5 89 346.5 33.8C346.5 26.8 346.5 19.9 346.5 13H347.5C347.5 19.9 347.5 26.9 347.5 33.8C347.5 89 347.5 146.1 329.9 199.3C319.8 229.7 311.9 257.6 318.3 289.9C321.3 305.1 325.7 320 330 334.5C336.4 356 343 378.2 344.8 401.4L343.7 401.5Z" fill="#3F5EF4"/>
<path d="M317.3 401.5C316.7 379.1 312.9 356.9 309.2 335.4C306.9 322.2 304.6 308.5 303 294.9C299.1 261.6 303.8 229.7 309.4 200.2C319.9 144.6 321.6 86.9 322.6 22.8H323.6C322.6 87 321 144.7 310.4 200.4C304.8 229.9 300.2 261.7 304.1 294.8C305.7 308.4 308.1 322.1 310.3 335.3C314 356.8 317.9 379.1 318.5 401.6L317.3 401.5Z" fill="#3F5EF4"/>
<path d="M291.9 401.5H290.9C291.2 374.1 290.1 346.4 289 319.7C287.5 280.9 285.9 240.9 288.5 201C289.5 185.8 289.8 170.4 290.1 155.4C290.4 141.1 290.7 126.4 291.6 111.9C292.3 100.8 293.4 89.5 294.5 78.7C296 63 297.6 46.9 298 30.8H299C298.6 46.9 297 63.1 295.5 78.8C294.4 89.7 293.3 100.9 292.6 112C291.7 126.5 291.4 141.2 291.1 155.4C290.8 170.3 290.5 185.8 289.5 201C286.9 240.8 288.5 280.8 290 319.6C291.1 346.4 292.2 374 291.9 401.5Z" fill="#3F5EF4"/>
<path d="M265.5 401.4H264.5C264.5 372.8 264.5 344.1 264.5 315.5C264.5 277.4 264.5 239.4 264.5 201.3C264.5 192.9 264.4 184.4 264.3 176.1C264 155 263.8 133.2 265.3 111.9C266.1 101.2 267.3 90.5 268.5 80.2C270.3 65.2 272.1 49.6 272.4 34.1H273.4C273.1 49.7 271.2 65.2 269.5 80.3C268.3 90.6 267 101.3 266.3 112C264.8 133.2 265.1 155 265.3 176.1C265.4 184.4 265.5 192.9 265.5 201.3C265.5 239.4 265.5 277.4 265.5 315.5C265.5 344.2 265.5 372.8 265.5 401.4Z" fill="#3F5EF4"/>
<path d="M240.7 397.3H239.7C239.8 376.1 239.2 354.7 238.5 333.9C237.2 290.2 235.8 245 241.5 200.6C246 165.8 245.4 130.7 244.9 96.7C244.6 75.1 244.2 52.8 245.1 30.6H246.1C245.2 52.7 245.5 75 245.9 96.6C246.4 130.6 247 165.8 242.5 200.6C236.8 244.9 238.2 290.1 239.5 333.7C240.2 354.6 240.8 376.1 240.7 397.3Z" fill="#3F5EF4"/>
<path d="M217.2 387.5C216.9 369.1 215.3 350.6 213.7 332.8C209.6 286.7 205.7 243.2 223.5 198.9C233 175.3 241.1 149 236.3 116.8C234.3 103.5 230.8 90.5 227.4 78C222.6 60.3 217.6 42 217 22.5H218C218.6 41.8 223.6 60.1 228.4 77.7C231.8 90.2 235.3 103.2 237.4 116.6C242.3 149 234.1 175.5 224.5 199.3C206.8 243.4 210.7 286.8 214.8 332.7C216.4 350.6 218.1 369 218.3 387.5H217.2Z" fill="#3F5EF4"/>
<path d="M195.3 375.8C194.4 355.2 191 334.7 187.7 314.9C185.5 301.5 183.2 287.6 181.7 273.7C177.9 238.8 187.2 220.5 206.8 197C228.4 171.2 238.2 151.3 228.6 120.3C224 105.3 217.2 91.3 210.7 77.7C201.1 57.6 191.1 36.7 188.1 13L189.1 12.9C192.1 36.5 202.1 57.2 211.7 77.3C218.2 90.9 225 105 229.6 120.1C239.4 151.6 229.4 171.7 207.6 197.8C188.1 221.1 178.9 239.3 182.7 273.8C184.2 287.6 186.5 301.5 188.7 314.9C192 334.8 195.4 355.3 196.3 376L195.3 375.8Z" fill="#3F5EF4"/>
<path d="M172.8 366C171.5 345.7 166.9 325.9 162.4 306.7C159.1 292.5 155.7 277.8 153.6 262.9C148.9 229.5 161.2 214.5 188.8 195.2C214.3 177.4 232.7 161 219.7 126.5C212.8 108.3 202.6 91.9 192.7 76C179 54.2 165 31.7 159.8 4.80004L160.8 4.60004C166 31.3 180 53.8 193.5 75.5C203.5 91.5 213.7 108 220.6 126.2C226.7 142.3 226.4 155.3 219.8 167.1C213.8 177.7 203.3 186.3 189.4 196.1C161.6 215.5 150 229.8 154.6 262.8C156.7 277.6 160.1 292.3 163.4 306.5C167.9 325.7 172.5 345.6 173.8 366H172.8Z" fill="#3F5EF4"/>
<path d="M148 361.9C146.8 341.5 141.5 322 136.3 303.2C132.5 289.2 128.6 274.7 126.3 259.9C120.9 224.8 134.1 211.4 165.9 194.7C193.8 180 215.8 164.9 201.1 128.6C193.4 109.5 181.5 92.6 170 76.2C154.1 53.6 137.7 30.3 132.5 1.40001L133.5 1.20001C138.6 29.9 155 53.2 170.8 75.6C182.4 92 194.3 109 202 128.2C208.7 144.9 208.3 158.4 200.6 169.7C193.3 180.5 179.8 188.5 166.3 195.6C135 212.1 121.9 225.2 127.3 259.8C129.6 274.6 133.5 289 137.3 303C142.4 321.9 147.8 341.5 149 361.9H148Z" fill="#3F5EF4"/>
<path d="M120 365.9C118.7 345.4 114 325.5 109.5 306.2C106.4 293.1 103.3 279.5 101.2 265.9C95.4999 229.2 108.6 213.9 138.3 195.3C169.7 175.6 185 157.5 170.1 123.2C162.7 106.2 152.2 90.6 142.1 75.6C126.9 53.1 111.2 29.7 106.1 1.30004L107.1 1.10004C112.2 29.4 127.8 52.6 143 75C153.1 90.1 163.6 105.6 171.1 122.7C186.2 157.6 170.8 176 138.9 196C102.1 219.1 97.7999 236.8 102.2 265.6C104.3 279.2 107.5 292.8 110.5 305.9C115 325.2 119.7 345.2 121 365.8L120 365.9Z" fill="#3F5EF4"/>
<path d="M89.8001 375.7C88.9001 354.9 85.5001 334.2 82.1001 314.3C80.0001 302 77.9 289.2 76.4 276.5C74.2 257.7 75.5 244 80.7 231.9C85.5 220.7 94.0001 210.3 109.1 196.9C132.3 176.4 150.5 156.6 138.1 122.4C131.6 104.5 121.4 88.2 111.6 72.5C98.0001 50.8 83.9 28.3 79.7 1.30004L80.7 1.10004C84.8 27.9 98.9 50.3 112.5 71.9C122.4 87.7 132.6 104 139.1 122C151.6 156.8 133.3 176.8 109.8 197.5C83.7001 220.6 72.8 237.5 77.4 276.2C78.9 288.9 81.0001 301.6 83.1001 314C86.4001 334 89.9001 354.7 90.8001 375.6L89.8001 375.7Z" fill="#3F5EF4"/>
<path d="M58.8998 387.4C58.5998 366.4 56.5998 345.2 54.6998 324.7C53.3998 311 52.0998 296.9 51.2998 282.9C49.2998 248.8 56.1998 228.3 79.4998 198.8C98.7998 174.4 114.1 151.6 105.1 120.7C99.7998 102.3 90.1998 85.7 80.9998 69.6C68.9998 48.6 56.4998 26.9 53.4998 1.30001L54.4998 1.20001C57.4998 26.6 69.8998 48.2 81.8998 69.1C91.1998 85.2 100.7 101.9 106.1 120.4C115.2 151.8 99.7998 174.8 80.3998 199.4C57.1998 228.7 50.3998 249 52.3998 282.8C53.1998 296.7 54.4998 310.9 55.7998 324.5C57.6998 345 59.6998 366.3 59.9998 387.3L58.8998 387.4Z" fill="#3F5EF4"/>
<path d="M29.5998 397.2H28.5998C28.6998 376 27.9998 354.4 27.2998 333.6C26.7998 319.5 26.2998 305 26.0998 290.7C25.5998 255.5 32.0998 231 50.1998 200.5C65.9998 173.9 79.4998 147.4 71.5998 116.7C67.0998 99 58.6998 82.8 50.5998 67.2C40.0998 46.7 29.2998 25.7 26.8998 1.30001L27.8998 1.20001C30.1998 25.4 41.0998 46.4 51.5998 66.6C59.6998 82.3 68.0998 98.5 72.6998 116.3C80.6998 147.5 66.9998 174.1 51.0998 200.9C33.0998 231.3 26.5998 255.6 27.0998 290.6C27.2998 304.9 27.7998 319.5 28.2998 333.5C28.9998 354.4 29.6998 376 29.5998 397.2Z" fill="#3F5EF4"/>
</svg>
