<svg width="370" height="402" viewBox="0 0 370 402" fill="none" xmlns="http://www.w3.org/2000/svg">
<path d="M0.399902 125.2V201H59.4999C128.7 201 184.7 144.9 184.7 75.8V0H125.6C56.3999 0 0.399902 56 0.399902 125.2Z" fill="#3F5EF4"/>
<path d="M310.5 0C241.3 0 185.3 56.1 185.3 125.2V201H244.4C313.6 201 369.6 144.9 369.6 75.8V0H310.5Z" fill="black"/>
<path d="M0.399902 326.2V402H59.4999C128.7 402 184.7 345.9 184.7 276.8V201H125.6C56.3999 201 0.399902 257.1 0.399902 326.2Z" fill="black"/>
<path d="M185.3 326.2V402H244.4C313.6 402 369.6 345.9 369.6 276.8V201H310.5C241.3 201 185.3 257.1 185.3 326.2Z" fill="black"/>
</svg>
