<svg width="318" height="356" viewBox="0 0 318 356" fill="none" xmlns="http://www.w3.org/2000/svg">
<path d="M159 0.400391C71.4999 0.400391 0.399902 71.6004 0.399902 159V353.1C0.399902 354.5 1.4999 355.6 2.8999 355.6H50.1999H94.9999H136H182.1H223.1H268H315.3C316.7 355.6 317.8 354.5 317.8 353.1V159C317.6 71.5004 246.5 0.400391 159 0.400391ZM138.4 350.6V158.7C138.4 147.4 147.6 138.1 159 138.1C170.3 138.1 179.6 147.3 179.6 158.7V350.6H138.4ZM184.6 350.6V158.7C184.6 144.6 173.1 133.1 159 133.1C144.9 133.1 133.4 144.6 133.4 158.7V350.6H97.3999V159.2C97.3999 125.3 125 97.7004 158.9 97.7004C192.8 97.7004 220.4 125.3 220.4 159.2V350.6H184.6ZM225.5 350.6V159.2C225.5 122.5 195.7 92.7004 159 92.7004C122.3 92.7004 92.4999 122.5 92.4999 159.2V350.6H52.5999V160.3C52.5999 101.6 100.3 53.9004 159 53.9004C217.7 53.9004 265.4 101.6 265.4 160.3V350.6H225.5ZM312.6 350.6H270.3V160.3C270.3 98.9004 220.3 48.9004 158.9 48.9004C97.4999 48.9004 47.4999 98.9004 47.4999 160.3V350.6H5.3999V159C5.3999 74.3004 74.2999 5.40039 159 5.40039C243.7 5.40039 312.6 74.3004 312.6 159V350.6Z" fill="black"/>
</svg>
