<svg width="408" height="408" viewBox="0 0 408 408" fill="none" xmlns="http://www.w3.org/2000/svg">
<path d="M204 0.899902C91.9999 0.899902 0.899902 91.9999 0.899902 204C0.899902 316 91.9999 407.1 204 407.1C316 407.1 407.1 316 407.1 204C407.1 91.9999 316 0.899902 204 0.899902ZM204 402.1C94.7999 402.1 5.8999 313.2 5.8999 204C5.8999 94.7999 94.7999 5.8999 204 5.8999C313.2 5.8999 402.1 94.7999 402.1 204C402.1 313.2 313.2 402.1 204 402.1Z" fill="black"/>
<path d="M204 39.5999C113.3 39.5999 39.5999 113.4 39.5999 204C39.5999 294.6 113.3 368.4 204 368.4C294.7 368.4 368.4 294.7 368.4 204C368.4 113.3 294.7 39.5999 204 39.5999ZM204 363.4C116.1 363.4 44.5999 291.9 44.5999 204C44.5999 116.1 116.1 44.5999 204 44.5999C291.9 44.5999 363.4 116.1 363.4 204C363.4 291.9 291.9 363.4 204 363.4Z" fill="black"/>
<path d="M204 78.2C134.6 78.2 78.2 134.6 78.2 204C78.2 273.4 134.6 329.8 204 329.8C273.4 329.8 329.8 273.4 329.8 204C329.8 134.6 273.4 78.2 204 78.2ZM204 324.8C137.4 324.8 83.2 270.6 83.2 204C83.2 137.4 137.4 83.2 204 83.2C270.6 83.2 324.8 137.4 324.8 204C324.8 270.6 270.6 324.8 204 324.8Z" fill="black"/>
<path d="M204 116.8C155.9 116.8 116.8 155.9 116.8 204C116.8 252.1 155.9 291.2 204 291.2C252.1 291.2 291.2 252.1 291.2 204C291.2 155.9 252.1 116.8 204 116.8ZM204 286.2C158.7 286.2 121.8 249.3 121.8 204C121.8 158.7 158.7 121.8 204 121.8C249.3 121.8 286.2 158.7 286.2 204C286.2 249.3 249.3 286.2 204 286.2Z" fill="black"/>
<path d="M204 155.5C177.3 155.5 155.5 177.3 155.5 204C155.5 230.7 177.3 252.5 204 252.5C230.7 252.5 252.5 230.7 252.5 204C252.5 177.3 230.7 155.5 204 155.5ZM204 247.5C180 247.5 160.5 228 160.5 204C160.5 180 180 160.5 204 160.5C228 160.5 247.5 180 247.5 204C247.5 228 228 247.5 204 247.5Z" fill="black"/>
</svg>
